<?xml version="1.0" encoding="iso-8859-1"?>
<!-- Generator: Adobe Illustrator 16.0.0, SVG Export Plug-In . SVG Version: 6.00 Build 0)  -->
<!DOCTYPE svg PUBLIC "-//W3C//DTD SVG 1.1//EN" "http://www.w3.org/Graphics/SVG/1.1/DTD/svg11.dtd">
<svg version="1.1" id="Capa_1" xmlns="http://www.w3.org/2000/svg" xmlns:xlink="http://www.w3.org/1999/xlink" x="0px"
   y="0px" width="492.368px" height="492.368px" viewBox="0 0 492.368 492.368"
   style="enable-background:new 0 0 492.368 492.368;" xml:space="preserve">
   <g>
      <g>
         <path fill="#BEA57D" d="M201.15,187.884c4,5.8,31.7,47.3-25.3,72c-0.5,0.3-1.5,0.1-1-0.7c0,0,13.9-11.8,22.1-33.1c6.2-15.9,3.6-27,2.9-38.4
			C199.851,187.284,200.25,186.484,201.15,187.884z M435.451,305.983c-29.8,94.9-139.102,145.2-244.201,112.2
			c-105-33-166-136.7-136.2-231.7c29.8-95,139.2-145.3,244.201-112.3C404.351,107.184,465.251,211.083,435.451,305.983z
			 M117.951,144.184c22.2-22.7,75.5-49,151.201-32c42.6,9.6,68.5,31.6,83.398,46.3c5,4.9,6.8,5.4,4.8,2.4
			c-18.5-27.9-47.5-50.3-83.398-61.7c-64.201-20.2-130.5,1.7-164.101,49.5C108.05,151.184,111.15,151.184,117.951,144.184z
			 M387.051,243.583c-4,0.7-9.1,1.9-15.8,3.8c-14.3,4.2-42.3,8.398-42.3,8.398s-5.2,1.2-6.9-1.3c-9.6-14.5-26.898-35.4-51.398-52.6
			c-0.4-0.2-31.901-21.9-52.001-25.1c-56.7-15.6-107.7,13.6-112.8,29.9c-3.5,11,0.1,20.2,18.5,37.2c0.5,0.1,14.2,12.3,15.3,13.1
			c0,0,12.2,12.4,34.7,22.2c33,14.3,71.2,21.8,132.801,3.8c3.5-1.1,4.3-0.5,9.198,3.9c9.302,8.5,49.802,43,54.7,40.3
			c0.5-0.2,0.602-0.7,0.5-1.4c-2.1-15.198-21.2-33.6-6.6-49.398c1.398-1.602,10-7.602,18-14.2c1.8-1.4,3.6-3,5.3-4.4l0.1-0.1
			C388.651,257.483,407.851,241.083,387.051,243.583z M162.351,199.784c-4-1.2-8.2,1-9.5,5.1c-1.3,4.1,0.9,8.4,4.8,9.6
			c3.9,1.2,8.2-1,9.5-5.1C168.451,205.284,166.351,200.984,162.351,199.784z M26.55,170.083c3.8-12.2,14.8-20.2,26.8-20.9
			c1,0,3-0.1,4.3-2.2c3.6-5.7,4.7-7.3,9-12.6c0.8-1,0.4-2-0.1-2.2c-24.4-6-49.7,8-57.4,32.3l-6.9,21.7c-7.7,24.3,5,50.1,28.3,59.2
			c0.5,0.2,1.7,0,1.3-1.1c-0.4-6.7-0.4-10.8,0-17.5c0.1-1-0.6-1.6-1-1.8c-10.3-7.3-15.3-20.7-11.2-33.3L26.55,170.083z
			 M459.051,253.283c-0.1,0-0.8,0-0.6,0.802c0.5,6.3,0.5,11.698,0.2,17.898c0,0.2,0,0.8,0.8,1.3c12.3,6.7,17.7,20.9,13.398,34.802
			l-6.8,21.6c-4.3,13.7-17.8,22.2-31.7,20.8c-3.5,5.602-7.3,10.9-11.5,16c0.102,0,0.102,0,0.2,0.102c25.3,7.898,52.4-6.2,60.2-31.4
			l6.8-21.6C498.151,288.184,484.351,261.184,459.051,253.283z" />
      </g>
   </g>
   <g>
   </g>
   <g>
   </g>
   <g>
   </g>
   <g>
   </g>
   <g>
   </g>
   <g>
   </g>
   <g>
   </g>
   <g>
   </g>
   <g>
   </g>
   <g>
   </g>
   <g>
   </g>
   <g>
   </g>
   <g>
   </g>
   <g>
   </g>
   <g>
   </g>
</svg>